<?xml version="1.0" encoding="UTF-8" standalone="no"?>
<svg
   viewBox="0 0 512 512"
   version="1.1"
   id="svg826"
   sodipodi:docname="friendlycapcha.svg"
   inkscape:version="1.1.2 (b8e25be8, 2022-02-05)"
   width="512"
   height="512"
   xmlns:inkscape="http://www.inkscape.org/namespaces/inkscape"
   xmlns:sodipodi="http://sodipodi.sourceforge.net/DTD/sodipodi-0.dtd"
   xmlns="http://www.w3.org/2000/svg"
   xmlns:svg="http://www.w3.org/2000/svg">
  <defs
     id="defs830">
    <linearGradient
       id="linearGradient1284"
       inkscape:swatch="solid">
      <stop
         style="stop-color:#000000;stop-opacity:1;"
         offset="0"
         id="stop1282" />
    </linearGradient>
  </defs>
  <sodipodi:namedview
     id="namedview828"
     pagecolor="#ffffff"
     bordercolor="#999999"
     borderopacity="1"
     inkscape:pageshadow="0"
     inkscape:pageopacity="0"
     inkscape:pagecheckerboard="0"
     showgrid="false"
     inkscape:zoom="0.95846118"
     inkscape:cx="414.20561"
     inkscape:cy="429.8557"
     inkscape:window-width="1930"
     inkscape:window-height="1166"
     inkscape:window-x="2030"
     inkscape:window-y="25"
     inkscape:window-maximized="0"
     inkscape:current-layer="svg826" />
  <!--! Font Awesome Pro 6.3.0 by @fontawesome - https://fontawesome.com License - https://fontawesome.com/license (Commercial License) Copyright 2023 Fonticons, Inc. -->
  <path
     style="fill:currentColor;stroke-width:1.23347"
     d="m 336.32812,228.5 a 27.5,27.5 0 0 0 -27.5,27.5 27.5,27.5 0 0 0 27.5,27.5 27.5,27.5 0 0 0 27.5,-27.5 27.5,27.5 0 0 0 -27.5,-27.5 z"
     id="path1725" />
  <path
     style="fill:currentColor;stroke-width:1.23347"
     d="m 216.32812,228.5 a 27.5,27.5 0 0 0 -27.5,27.5 27.5,27.5 0 0 0 27.5,27.5 27.5,27.5 0 0 0 27.5,-27.5 27.5,27.5 0 0 0 -27.5,-27.5 z"
     id="path1723" />
  <path
     style="fill:currentColor;stroke-width:1.23347"
     d="M 256,0 C 114.91753,0 0,114.91753 0,256 c 0,141.08247 114.91753,256 256,256 80.70208,0 152.7961,-37.64043 199.76367,-96.23242 L 419.63672,379.64062 C 382.27535,429.08471 322.9852,460.95898 256,460.95898 142.50221,460.95898 51.041016,369.49778 51.041016,256 51.041016,142.50222 142.50221,51.041016 256,51.041016 c 66.9852,0 126.27535,31.874267 163.63672,81.318364 L 455.76367,96.232422 C 408.7961,37.640429 336.70208,0 256,0 Z"
     id="path1114" />
</svg>
