<?xml version="1.0" encoding="UTF-8" standalone="no"?>
<svg
    viewBox="0 0 400 512"
    version="1.1"
    id="svg826"
    sodipodi:docname="honeypot.svg"
    inkscape:version="1.1.2 (b8e25be8, 2022-02-05)"
    width="400"
    height="512"
    xmlns:inkscape="http://www.inkscape.org/namespaces/inkscape"
    xmlns:sodipodi="http://sodipodi.sourceforge.net/DTD/sodipodi-0.dtd"
    xmlns="http://www.w3.org/2000/svg"
    xmlns:svg="http://www.w3.org/2000/svg">
    <defs
        id="defs830"/>
    <sodipodi:namedview
        id="namedview828"
        pagecolor="#ffffff"
        bordercolor="#999999"
        borderopacity="1"
        inkscape:pageshadow="0"
        inkscape:pageopacity="0"
        inkscape:pagecheckerboard="0"
        showgrid="false"
        inkscape:zoom="0.95846118"
        inkscape:cx="387.0788"
        inkscape:cy="285.87491"
        inkscape:window-width="1930"
        inkscape:window-height="1166"
        inkscape:window-x="2030"
        inkscape:window-y="107"
        inkscape:window-maximized="0"
        inkscape:current-layer="svg826"/>
    <!--! Font Awesome Pro 6.3.0 by @fontawesome - https://fontawesome.com License - https://fontawesome.com/license (Commercial License) Copyright 2023 Fonticons, Inc. -->
    <path
        id="path2211"
        style="fill:currentColor"
        d="M 104,0 C 86.3,0 72,14.3 72,32 72,49.7 86.3,64 104,64 H 296 C 313.7,64 328,49.7 328,32 328,14.3 313.7,0 296,0 Z M 64,96 C 28.7,96 0,124.7 0,160 v 288 c 0,35.3 28.7,64 64,64 h 272 c 35.3,0 64,-28.7 64,-64 V 160 c 0,-35.3 -28.7,-64 -64,-64 z m 46.36523,55.81836 74.50391,43.01562 v 86.02735 l -74.50391,43.01562 -74.501949,-43.01562 v -86.02735 z m 179.26954,0 74.50195,43.01562 v 86.02735 l -74.50195,43.01562 -74.50391,-43.01562 V 194.83398 Z M 200,301.20703 274.50391,344.22266 V 430.25 L 200,473.26562 125.49609,430.25 v -86.02734 z"/>
</svg>
